<svg xmlns="http://www.w3.org/2000/svg" xmlns:xlink="http://www.w3.org/1999/xlink" width="1389" zoomAndPan="magnify" viewBox="0 0 1041.75 1087.499972" height="1450" preserveAspectRatio="xMidYMid meet" version="1.0"><defs><clipPath id="75be3a9692"><path d="M 241 5.894531 L 821 5.894531 L 821 412 L 241 412 Z M 241 5.894531 " clip-rule="nonzero"/></clipPath><clipPath id="d4008b6ba1"><path d="M 530.984375 5.894531 C 371.289062 5.894531 241.394531 135.792969 241.394531 295.488281 C 241.394531 336.878906 250.121094 376.234375 265.839844 411.859375 L 319.789062 411.859375 C 300.757812 377.351562 289.882812 337.695312 289.882812 295.488281 C 289.882812 162.324219 397.835938 54.386719 530.984375 54.386719 C 664.136719 54.386719 772.085938 162.335938 772.085938 295.488281 C 772.085938 337.695312 761.210938 377.351562 742.179688 411.859375 L 796.132812 411.859375 C 811.851562 376.234375 820.578125 336.878906 820.578125 295.488281 C 820.578125 135.792969 690.679688 5.894531 530.984375 5.894531 " clip-rule="nonzero"/></clipPath><clipPath id="61cfd22819"><path d="M 0.203125 0.894531 L 579.777344 0.894531 L 579.777344 406.890625 L 0.203125 406.890625 Z M 0.203125 0.894531 " clip-rule="nonzero"/></clipPath><clipPath id="42f924986f"><path d="M 289.984375 0.894531 C 130.289062 0.894531 0.394531 130.792969 0.394531 290.488281 C 0.394531 331.878906 9.121094 371.234375 24.839844 406.859375 L 78.789062 406.859375 C 59.757812 372.351562 48.882812 332.695312 48.882812 290.488281 C 48.882812 157.324219 156.835938 49.386719 289.984375 49.386719 C 423.136719 49.386719 531.085938 157.335938 531.085938 290.488281 C 531.085938 332.695312 520.210938 372.351562 501.179688 406.859375 L 555.132812 406.859375 C 570.851562 371.234375 579.578125 331.878906 579.578125 290.488281 C 579.578125 130.792969 449.679688 0.894531 289.984375 0.894531 " clip-rule="nonzero"/></clipPath><clipPath id="5831c46e9d"><rect x="0" width="580" y="0" height="407"/></clipPath><clipPath id="180dd4df7b"><path d="M 413.707031 145 L 648 145 L 648 509 L 413.707031 509 Z M 413.707031 145 " clip-rule="nonzero"/></clipPath><clipPath id="c1799235ac"><path d="M 572.765625 309.722656 C 562.09375 320.394531 547.304688 327.023438 531.007812 327.023438 C 498.378906 327.023438 471.925781 300.570312 471.925781 267.964844 C 471.925781 251.65625 478.542969 236.878906 489.226562 226.183594 C 499.921875 215.511719 514.710938 208.882812 531.007812 208.882812 C 547.304688 208.882812 562.09375 215.5 572.765625 226.183594 C 583.4375 236.878906 590.066406 251.667969 590.066406 267.964844 C 590.066406 284.261719 583.449219 299.027344 572.765625 309.722656 M 613.734375 180.0625 C 590.902344 157.230469 560.9375 145.804688 530.996094 145.804688 C 501.054688 145.804688 471.101562 157.230469 448.257812 180.0625 C 411.609375 216.703125 403.421875 273.058594 428.140625 318.589844 L 530.996094 508.238281 L 633.851562 318.589844 C 643.355469 301.03125 647.992188 281.878906 647.992188 262.859375 C 647.992188 232.527344 636.234375 202.585938 613.734375 180.0625 " clip-rule="nonzero"/></clipPath><clipPath id="368f3bb21b"><path d="M 0.707031 0.613281 L 235 0.613281 L 235 363.328125 L 0.707031 363.328125 Z M 0.707031 0.613281 " clip-rule="nonzero"/></clipPath><clipPath id="c9c818b872"><path d="M 159.765625 164.722656 C 149.09375 175.394531 134.304688 182.023438 118.007812 182.023438 C 85.378906 182.023438 58.925781 155.570312 58.925781 122.964844 C 58.925781 106.65625 65.542969 91.878906 76.226562 81.183594 C 86.921875 70.511719 101.710938 63.882812 118.007812 63.882812 C 134.304688 63.882812 149.09375 70.5 159.765625 81.183594 C 170.4375 91.878906 177.066406 106.667969 177.066406 122.964844 C 177.066406 139.261719 170.449219 154.027344 159.765625 164.722656 M 200.734375 35.0625 C 177.902344 12.230469 147.9375 0.804688 117.996094 0.804688 C 88.054688 0.804688 58.101562 12.230469 35.257812 35.0625 C -1.390625 71.703125 -9.578125 128.058594 15.140625 173.589844 L 117.996094 363.238281 L 220.851562 173.589844 C 230.355469 156.03125 234.992188 136.878906 234.992188 117.859375 C 234.992188 87.527344 223.234375 57.585938 200.734375 35.0625 " clip-rule="nonzero"/></clipPath><clipPath id="e8df841b65"><rect x="0" width="235" y="0" height="364"/></clipPath><clipPath id="1a6514be1b"><path d="M 153.238281 404.253906 L 511.53125 404.253906 L 511.53125 920.476562 L 153.238281 920.476562 Z M 153.238281 404.253906 " clip-rule="nonzero"/></clipPath><clipPath id="f7e26d26d7"><path d="M 232.761719 679.328125 L 232.761719 484.207031 L 382.304688 484.207031 L 427.222656 567.039062 Z M 429.664062 404.6875 L 153.242188 404.6875 L 153.242188 874.554688 L 232.761719 920.441406 L 232.761719 771.203125 L 511.125 610.433594 L 511.125 554.949219 Z M 429.664062 404.6875 " clip-rule="nonzero"/></clipPath><clipPath id="492cc38197"><path d="M 0.238281 0.453125 L 358.320312 0.453125 L 358.320312 516.457031 L 0.238281 516.457031 Z M 0.238281 0.453125 " clip-rule="nonzero"/></clipPath><clipPath id="4a96bd24a3"><path d="M 79.761719 275.328125 L 79.761719 80.207031 L 229.304688 80.207031 L 274.222656 163.039062 Z M 276.664062 0.6875 L 0.242188 0.6875 L 0.242188 470.554688 L 79.761719 516.441406 L 79.761719 367.203125 L 358.125 206.433594 L 358.125 150.949219 Z M 276.664062 0.6875 " clip-rule="nonzero"/></clipPath><clipPath id="d5a7b93154"><rect x="0" width="359" y="0" height="517"/></clipPath><clipPath id="b5bb151a6e"><path d="M 550.421875 404.253906 L 908.714844 404.253906 L 908.714844 1081.945312 L 550.421875 1081.945312 Z M 550.421875 404.253906 " clip-rule="nonzero"/></clipPath><clipPath id="182738dcbb"><path d="M 829.246094 598.996094 L 829.199219 599.042969 L 630.410156 713.773438 L 630.410156 575.058594 L 679.667969 484.207031 L 679.714844 484.207031 L 829.210938 484.160156 L 829.210938 484.207031 L 829.257812 484.253906 Z M 632.34375 404.6875 L 550.878906 554.949219 L 550.878906 1081.101562 L 630.398438 1035.21875 L 630.398438 805.601562 L 908.703125 644.941406 L 908.703125 404.6875 Z M 632.34375 404.6875 " clip-rule="nonzero"/></clipPath><clipPath id="e61c4fec29"><path d="M 0.660156 0.453125 L 358.714844 0.453125 L 358.714844 677.183594 L 0.660156 677.183594 Z M 0.660156 0.453125 " clip-rule="nonzero"/></clipPath><clipPath id="df8400a806"><path d="M 279.246094 194.996094 L 279.199219 195.042969 L 80.410156 309.773438 L 80.410156 171.058594 L 129.667969 80.207031 L 129.714844 80.207031 L 279.210938 80.160156 L 279.210938 80.207031 L 279.257812 80.253906 Z M 82.34375 0.6875 L 0.878906 150.949219 L 0.878906 677.101562 L 80.398438 631.21875 L 80.398438 401.601562 L 358.703125 240.941406 L 358.703125 0.6875 Z M 82.34375 0.6875 " clip-rule="nonzero"/></clipPath><clipPath id="3d501e0170"><rect x="0" width="359" y="0" height="678"/></clipPath><clipPath id="460f4e2f85"><path d="M 370.097656 169.714844 L 691.855469 169.714844 L 691.855469 348.863281 L 370.097656 348.863281 Z M 370.097656 169.714844 " clip-rule="nonzero"/></clipPath><clipPath id="a1d1ef54dd"><path d="M 497.046875 197.253906 L 508.035156 210.40625 L 541.976562 169.800781 L 691.28125 348.390625 L 370.6875 348.390625 Z M 497.046875 197.253906 " clip-rule="nonzero"/></clipPath><clipPath id="70724df5ce"><path d="M 0.503906 0.714844 L 321.476562 0.714844 L 321.476562 179.558594 L 0.503906 179.558594 Z M 0.503906 0.714844 " clip-rule="nonzero"/></clipPath><clipPath id="a3b6f125dc"><path d="M 127.046875 28.253906 L 138.035156 41.40625 L 171.976562 0.800781 L 321.28125 179.390625 L 0.6875 179.390625 Z M 127.046875 28.253906 " clip-rule="nonzero"/></clipPath><clipPath id="d2e7f74d9e"><rect x="0" width="322" y="0" height="180"/></clipPath></defs><g clip-path="url(#75be3a9692)"><g clip-path="url(#d4008b6ba1)"><g transform="matrix(1, 0, 0, 1, 241, 5)"><g clip-path="url(#5831c46e9d)"><g clip-path="url(#61cfd22819)"><g clip-path="url(#42f924986f)"><rect x="-470.185" width="1500.12" fill="#ffffff" height="1565.99996" y="-244.249994" fill-opacity="1"/></g></g></g></g></g></g><g clip-path="url(#180dd4df7b)"><g clip-path="url(#c1799235ac)"><g transform="matrix(1, 0, 0, 1, 413, 145)"><g clip-path="url(#e8df841b65)"><g clip-path="url(#368f3bb21b)"><g clip-path="url(#c9c818b872)"><rect x="-642.185" width="1500.12" fill="#ffffff" height="1565.99996" y="-384.249994" fill-opacity="1"/></g></g></g></g></g></g><g clip-path="url(#1a6514be1b)"><g clip-path="url(#f7e26d26d7)"><g transform="matrix(1, 0, 0, 1, 153, 404)"><g clip-path="url(#d5a7b93154)"><g clip-path="url(#492cc38197)"><g clip-path="url(#4a96bd24a3)"><rect x="-382.185" width="1500.12" fill="#ffffff" height="1565.99996" y="-643.249994" fill-opacity="1"/></g></g></g></g></g></g><g clip-path="url(#b5bb151a6e)"><g clip-path="url(#182738dcbb)"><g transform="matrix(1, 0, 0, 1, 550, 404)"><g clip-path="url(#3d501e0170)"><g clip-path="url(#e61c4fec29)"><g clip-path="url(#df8400a806)"><rect x="-779.185" width="1500.12" fill="#ffffff" height="1565.99996" y="-643.249994" fill-opacity="1"/></g></g></g></g></g></g><g clip-path="url(#460f4e2f85)"><g clip-path="url(#a1d1ef54dd)"><g transform="matrix(1, 0, 0, 1, 370, 169)"><g clip-path="url(#d2e7f74d9e)"><g clip-path="url(#70724df5ce)"><g clip-path="url(#a3b6f125dc)"><rect x="-599.185" width="1500.12" fill="#fc9112" height="1565.99996" y="-408.249994" fill-opacity="1"/></g></g></g></g></g></g></svg>