<svg xmlns="http://www.w3.org/2000/svg" xmlns:xlink="http://www.w3.org/1999/xlink" width="1389" zoomAndPan="magnify" viewBox="0 0 1041.75 1087.499972" height="1450" preserveAspectRatio="xMidYMid meet" version="1.0"><defs><clipPath id="375eff92f7"><path d="M 231 5.894531 L 811 5.894531 L 811 412 L 231 412 Z M 231 5.894531 " clip-rule="nonzero"/></clipPath><clipPath id="979f136df6"><path d="M 520.757812 5.894531 C 361.0625 5.894531 231.164062 135.792969 231.164062 295.488281 C 231.164062 336.878906 239.890625 376.234375 255.613281 411.859375 L 309.5625 411.859375 C 290.53125 377.351562 279.65625 337.695312 279.65625 295.488281 C 279.65625 162.324219 387.605469 54.386719 520.757812 54.386719 C 653.910156 54.386719 761.859375 162.335938 761.859375 295.488281 C 761.859375 337.695312 750.984375 377.351562 731.953125 411.859375 L 785.902344 411.859375 C 801.625 376.234375 810.351562 336.878906 810.351562 295.488281 C 810.351562 135.792969 680.453125 5.894531 520.757812 5.894531 " clip-rule="nonzero"/></clipPath><clipPath id="aeed3c3de4"><path d="M 0.128906 0.894531 L 579.460938 0.894531 L 579.460938 406.890625 L 0.128906 406.890625 Z M 0.128906 0.894531 " clip-rule="nonzero"/></clipPath><clipPath id="985ae29fe4"><path d="M 289.757812 0.894531 C 130.0625 0.894531 0.164062 130.792969 0.164062 290.488281 C 0.164062 331.878906 8.890625 371.234375 24.613281 406.859375 L 78.5625 406.859375 C 59.53125 372.351562 48.65625 332.695312 48.65625 290.488281 C 48.65625 157.324219 156.605469 49.386719 289.757812 49.386719 C 422.910156 49.386719 530.859375 157.335938 530.859375 290.488281 C 530.859375 332.695312 519.984375 372.351562 500.953125 406.859375 L 554.902344 406.859375 C 570.625 371.234375 579.351562 331.878906 579.351562 290.488281 C 579.351562 130.792969 449.453125 0.894531 289.757812 0.894531 " clip-rule="nonzero"/></clipPath><clipPath id="f26e61c5e1"><rect x="0" width="580" y="0" height="407"/></clipPath><clipPath id="0cf26bfa2a"><path d="M 403.480469 145 L 638 145 L 638 509 L 403.480469 509 Z M 403.480469 145 " clip-rule="nonzero"/></clipPath><clipPath id="f085a34544"><path d="M 562.539062 309.722656 C 551.867188 320.394531 537.078125 327.023438 520.78125 327.023438 C 488.152344 327.023438 461.699219 300.570312 461.699219 267.964844 C 461.699219 251.65625 468.316406 236.878906 479 226.183594 C 489.695312 215.511719 504.484375 208.882812 520.78125 208.882812 C 537.078125 208.882812 551.867188 215.5 562.539062 226.183594 C 573.210938 236.878906 579.839844 251.667969 579.839844 267.964844 C 579.839844 284.261719 573.222656 299.027344 562.539062 309.722656 M 603.507812 180.0625 C 580.675781 157.230469 550.710938 145.804688 520.769531 145.804688 C 490.828125 145.804688 460.875 157.230469 438.03125 180.0625 C 401.382812 216.703125 393.195312 273.058594 417.914062 318.589844 L 520.769531 508.238281 L 623.625 318.589844 C 633.128906 301.03125 637.765625 281.878906 637.765625 262.859375 C 637.765625 232.527344 626.007812 202.585938 603.507812 180.0625 " clip-rule="nonzero"/></clipPath><clipPath id="60ca0199ce"><path d="M 0.480469 0.613281 L 234.980469 0.613281 L 234.980469 363.328125 L 0.480469 363.328125 Z M 0.480469 0.613281 " clip-rule="nonzero"/></clipPath><clipPath id="a3793fc46c"><path d="M 159.539062 164.722656 C 148.867188 175.394531 134.078125 182.023438 117.78125 182.023438 C 85.152344 182.023438 58.699219 155.570312 58.699219 122.964844 C 58.699219 106.65625 65.316406 91.878906 76 81.183594 C 86.695312 70.511719 101.484375 63.882812 117.78125 63.882812 C 134.078125 63.882812 148.867188 70.5 159.539062 81.183594 C 170.210938 91.878906 176.839844 106.667969 176.839844 122.964844 C 176.839844 139.261719 170.222656 154.027344 159.539062 164.722656 M 200.507812 35.0625 C 177.675781 12.230469 147.710938 0.804688 117.769531 0.804688 C 87.828125 0.804688 57.875 12.230469 35.03125 35.0625 C -1.617188 71.703125 -9.804688 128.058594 14.914062 173.589844 L 117.769531 363.238281 L 220.625 173.589844 C 230.128906 156.03125 234.765625 136.878906 234.765625 117.859375 C 234.765625 87.527344 223.007812 57.585938 200.507812 35.0625 " clip-rule="nonzero"/></clipPath><clipPath id="9d59186a72"><rect x="0" width="235" y="0" height="364"/></clipPath><clipPath id="002c0640fc"><path d="M 143.011719 404.253906 L 501 404.253906 L 501 920.476562 L 143.011719 920.476562 Z M 143.011719 404.253906 " clip-rule="nonzero"/></clipPath><clipPath id="fdae3eaddd"><path d="M 222.535156 679.328125 L 222.535156 484.207031 L 372.078125 484.207031 L 416.996094 567.039062 Z M 419.4375 404.6875 L 143.015625 404.6875 L 143.015625 874.554688 L 222.535156 920.441406 L 222.535156 771.203125 L 500.898438 610.433594 L 500.898438 554.949219 Z M 419.4375 404.6875 " clip-rule="nonzero"/></clipPath><clipPath id="f33cc3e63f"><path d="M 0.0117188 0.453125 L 358 0.453125 L 358 516.457031 L 0.0117188 516.457031 Z M 0.0117188 0.453125 " clip-rule="nonzero"/></clipPath><clipPath id="0236a64ebf"><path d="M 79.535156 275.328125 L 79.535156 80.207031 L 229.078125 80.207031 L 273.996094 163.039062 Z M 276.4375 0.6875 L 0.015625 0.6875 L 0.015625 470.554688 L 79.535156 516.441406 L 79.535156 367.203125 L 357.898438 206.433594 L 357.898438 150.949219 Z M 276.4375 0.6875 " clip-rule="nonzero"/></clipPath><clipPath id="29ee337c12"><rect x="0" width="358" y="0" height="517"/></clipPath><clipPath id="1f8f2a4d97"><path d="M 540.195312 404.253906 L 898.488281 404.253906 L 898.488281 1081.945312 L 540.195312 1081.945312 Z M 540.195312 404.253906 " clip-rule="nonzero"/></clipPath><clipPath id="9851e9f0ff"><path d="M 819.019531 598.996094 L 818.972656 599.042969 L 620.183594 713.773438 L 620.183594 575.058594 L 669.441406 484.207031 L 669.488281 484.207031 L 818.984375 484.160156 L 818.984375 484.207031 L 819.03125 484.253906 Z M 622.117188 404.6875 L 540.652344 554.949219 L 540.652344 1081.101562 L 620.171875 1035.21875 L 620.171875 805.601562 L 898.476562 644.941406 L 898.476562 404.6875 Z M 622.117188 404.6875 " clip-rule="nonzero"/></clipPath><clipPath id="85971656ee"><path d="M 0.585938 0.453125 L 358.488281 0.453125 L 358.488281 677.183594 L 0.585938 677.183594 Z M 0.585938 0.453125 " clip-rule="nonzero"/></clipPath><clipPath id="fa58ce0265"><path d="M 279.019531 194.996094 L 278.972656 195.042969 L 80.183594 309.773438 L 80.183594 171.058594 L 129.441406 80.207031 L 129.488281 80.207031 L 278.984375 80.160156 L 278.984375 80.207031 L 279.03125 80.253906 Z M 82.117188 0.6875 L 0.652344 150.949219 L 0.652344 677.101562 L 80.171875 631.21875 L 80.171875 401.601562 L 358.476562 240.941406 L 358.476562 0.6875 Z M 82.117188 0.6875 " clip-rule="nonzero"/></clipPath><clipPath id="9253098d02"><rect x="0" width="359" y="0" height="678"/></clipPath><clipPath id="7695c6adff"><path d="M 360 169.714844 L 681.628906 169.714844 L 681.628906 348.863281 L 360 348.863281 Z M 360 169.714844 " clip-rule="nonzero"/></clipPath><clipPath id="dd6fc246c6"><path d="M 486.820312 197.253906 L 497.808594 210.40625 L 531.75 169.800781 L 681.054688 348.390625 L 360.460938 348.390625 Z M 486.820312 197.253906 " clip-rule="nonzero"/></clipPath><clipPath id="1764e662d7"><path d="M 0.429688 0.714844 L 321.160156 0.714844 L 321.160156 179.558594 L 0.429688 179.558594 Z M 0.429688 0.714844 " clip-rule="nonzero"/></clipPath><clipPath id="a33a6a9290"><path d="M 126.820312 28.253906 L 137.808594 41.40625 L 171.75 0.800781 L 321.054688 179.390625 L 0.460938 179.390625 Z M 126.820312 28.253906 " clip-rule="nonzero"/></clipPath><clipPath id="bdf203158a"><rect x="0" width="322" y="0" height="180"/></clipPath></defs><g clip-path="url(#375eff92f7)"><g clip-path="url(#979f136df6)"><g transform="matrix(1, 0, 0, 1, 231, 5)"><g clip-path="url(#f26e61c5e1)"><g clip-path="url(#aeed3c3de4)"><g clip-path="url(#985ae29fe4)"><rect x="-460.185" width="1500.12" fill="#fc9112" height="1565.99996" y="-244.249994" fill-opacity="1"/></g></g></g></g></g></g><g clip-path="url(#0cf26bfa2a)"><g clip-path="url(#f085a34544)"><g transform="matrix(1, 0, 0, 1, 403, 145)"><g clip-path="url(#9d59186a72)"><g clip-path="url(#60ca0199ce)"><g clip-path="url(#a3793fc46c)"><rect x="-632.185" width="1500.12" fill="#fc9112" height="1565.99996" y="-384.249994" fill-opacity="1"/></g></g></g></g></g></g><g clip-path="url(#002c0640fc)"><g clip-path="url(#fdae3eaddd)"><g transform="matrix(1, 0, 0, 1, 143, 404)"><g clip-path="url(#29ee337c12)"><g clip-path="url(#f33cc3e63f)"><g clip-path="url(#0236a64ebf)"><rect x="-372.185" width="1500.12" fill="#ffffff" height="1565.99996" y="-643.249994" fill-opacity="1"/></g></g></g></g></g></g><g clip-path="url(#1f8f2a4d97)"><g clip-path="url(#9851e9f0ff)"><g transform="matrix(1, 0, 0, 1, 540, 404)"><g clip-path="url(#9253098d02)"><g clip-path="url(#85971656ee)"><g clip-path="url(#fa58ce0265)"><rect x="-769.185" width="1500.12" fill="#ffffff" height="1565.99996" y="-643.249994" fill-opacity="1"/></g></g></g></g></g></g><g clip-path="url(#7695c6adff)"><g clip-path="url(#dd6fc246c6)"><g transform="matrix(1, 0, 0, 1, 360, 169)"><g clip-path="url(#bdf203158a)"><g clip-path="url(#1764e662d7)"><g clip-path="url(#a33a6a9290)"><rect x="-589.185" width="1500.12" fill="#282d35" height="1565.99996" y="-408.249994" fill-opacity="1"/></g></g></g></g></g></g></svg>