<svg xmlns="http://www.w3.org/2000/svg" xmlns:xlink="http://www.w3.org/1999/xlink" width="1389" zoomAndPan="magnify" viewBox="0 0 1041.75 1087.499972" height="1450" preserveAspectRatio="xMidYMid meet" version="1.0"><defs><clipPath id="efe3112869"><path d="M 4.546875 27.035156 L 1038 27.035156 L 1038 1059.964844 L 4.546875 1059.964844 Z M 4.546875 27.035156 " clip-rule="nonzero"/></clipPath><clipPath id="2ad0e576ac"><path d="M 1037.476562 543.5 C 1037.476562 828.734375 806.253906 1059.960938 521.015625 1059.960938 C 235.777344 1059.960938 4.546875 828.734375 4.546875 543.5 C 4.546875 258.261719 235.769531 27.035156 521.007812 27.035156 C 806.246094 27.035156 1037.46875 258.261719 1037.46875 543.5 " clip-rule="nonzero"/></clipPath><clipPath id="c1ba26328b"><path d="M 0.546875 0.0351562 L 1033.636719 0.0351562 L 1033.636719 1032.964844 L 0.546875 1032.964844 Z M 0.546875 0.0351562 " clip-rule="nonzero"/></clipPath><clipPath id="34ea84def6"><path d="M 1033.476562 516.5 C 1033.476562 801.734375 802.253906 1032.960938 517.015625 1032.960938 C 231.777344 1032.960938 0.546875 801.734375 0.546875 516.5 C 0.546875 231.261719 231.769531 0.0351562 517.007812 0.0351562 C 802.246094 0.0351562 1033.46875 231.261719 1033.46875 516.5 " clip-rule="nonzero"/></clipPath><clipPath id="33b33d2cad"><rect x="0" width="1034" y="0" height="1033"/></clipPath><clipPath id="b8ef6d155c"><path d="M 304.023438 123 L 770 123 L 770 450 L 304.023438 450 Z M 304.023438 123 " clip-rule="nonzero"/></clipPath><clipPath id="df71b9de5c"><path d="M 537.128906 123.039062 C 408.703125 123.039062 304.253906 227.488281 304.253906 355.914062 C 304.253906 389.199219 311.269531 420.847656 323.914062 449.492188 L 367.292969 449.492188 C 351.984375 421.746094 343.242188 389.855469 343.242188 355.914062 C 343.242188 248.835938 430.042969 162.023438 537.128906 162.023438 C 644.214844 162.023438 731.011719 248.835938 731.011719 355.914062 C 731.011719 389.855469 722.273438 421.746094 706.957031 449.492188 L 750.339844 449.492188 C 762.980469 420.847656 769.996094 389.199219 769.996094 355.914062 C 769.996094 227.488281 665.546875 123.039062 537.121094 123.039062 " clip-rule="nonzero"/></clipPath><clipPath id="401449337d"><path d="M 0.0546875 0 L 466 0 L 466 326.554688 L 0.0546875 326.554688 Z M 0.0546875 0 " clip-rule="nonzero"/></clipPath><clipPath id="af9d0289cf"><path d="M 233.128906 0.0390625 C 104.703125 0.0390625 0.253906 104.488281 0.253906 232.914062 C 0.253906 266.199219 7.269531 297.847656 19.914062 326.492188 L 63.292969 326.492188 C 47.984375 298.746094 39.242188 266.855469 39.242188 232.914062 C 39.242188 125.835938 126.042969 39.023438 233.128906 39.023438 C 340.214844 39.023438 427.011719 125.835938 427.011719 232.914062 C 427.011719 266.855469 418.273438 298.746094 402.957031 326.492188 L 446.339844 326.492188 C 458.980469 297.847656 465.996094 266.199219 465.996094 232.914062 C 465.996094 104.488281 361.546875 0.0390625 233.121094 0.0390625 " clip-rule="nonzero"/></clipPath><clipPath id="8128a676ee"><rect x="0" width="466" y="0" height="327"/></clipPath><clipPath id="af2d17cf59"><path d="M 443 235.027344 L 631.652344 235.027344 L 631.652344 527 L 443 527 Z M 443 235.027344 " clip-rule="nonzero"/></clipPath><clipPath id="1bcaa18457"><path d="M 570.71875 367.359375 C 562.128906 375.945312 550.246094 381.265625 537.136719 381.265625 C 510.902344 381.265625 489.625 359.996094 489.625 333.769531 C 489.625 320.660156 494.945312 308.769531 503.535156 300.164062 C 512.136719 291.574219 524.027344 286.257812 537.136719 286.257812 C 550.246094 286.257812 562.136719 291.574219 570.71875 300.164062 C 579.308594 308.769531 584.625 320.660156 584.625 333.769531 C 584.625 346.878906 579.308594 358.746094 570.71875 367.351562 M 603.664062 263.078125 C 585.308594 244.722656 561.214844 235.53125 537.136719 235.53125 C 513.0625 235.53125 488.96875 244.722656 470.609375 263.078125 C 441.144531 292.546875 434.558594 337.859375 454.433594 374.476562 L 537.136719 527 L 619.851562 374.492188 C 627.5 360.371094 631.222656 344.96875 631.222656 329.679688 C 631.222656 305.28125 621.765625 281.210938 603.671875 263.09375 " clip-rule="nonzero"/></clipPath><clipPath id="bf684d5738"><path d="M 0 0.332031 L 188.265625 0.332031 L 188.265625 292 L 0 292 Z M 0 0.332031 " clip-rule="nonzero"/></clipPath><clipPath id="b913d385b6"><path d="M 127.71875 132.359375 C 119.128906 140.945312 107.246094 146.265625 94.136719 146.265625 C 67.902344 146.265625 46.625 124.996094 46.625 98.769531 C 46.625 85.660156 51.945312 73.769531 60.535156 65.164062 C 69.136719 56.574219 81.027344 51.257812 94.136719 51.257812 C 107.246094 51.257812 119.136719 56.574219 127.71875 65.164062 C 136.308594 73.769531 141.625 85.660156 141.625 98.769531 C 141.625 111.878906 136.308594 123.746094 127.71875 132.351562 M 160.664062 28.078125 C 142.308594 9.722656 118.214844 0.53125 94.136719 0.53125 C 70.0625 0.53125 45.96875 9.722656 27.609375 28.078125 C -1.855469 57.546875 -8.441406 102.859375 11.433594 139.476562 L 94.136719 292 L 176.851562 139.492188 C 184.5 125.371094 188.222656 109.96875 188.222656 94.679688 C 188.222656 70.28125 178.765625 46.210938 160.671875 28.09375 " clip-rule="nonzero"/></clipPath><clipPath id="f22a472c35"><rect x="0" width="189" y="0" height="292"/></clipPath><clipPath id="96ce36ff15"><path d="M 233 443.023438 L 521.402344 443.023438 L 521.402344 859 L 233 859 Z M 233 443.023438 " clip-rule="nonzero"/></clipPath><clipPath id="ec4fce2219"><path d="M 297.308594 664.585938 L 297.308594 507.679688 L 417.558594 507.679688 L 453.675781 574.292969 Z M 455.644531 443.734375 L 233.363281 443.734375 L 233.363281 821.578125 L 297.308594 858.476562 L 297.308594 738.46875 L 521.148438 609.183594 L 521.148438 564.5625 Z M 455.644531 443.734375 " clip-rule="nonzero"/></clipPath><clipPath id="2ba209305e"><path d="M 0.289062 0.554688 L 288.15625 0.554688 L 288.15625 415.566406 L 0.289062 415.566406 Z M 0.289062 0.554688 " clip-rule="nonzero"/></clipPath><clipPath id="2c237c8377"><path d="M 64.308594 221.585938 L 64.308594 64.679688 L 184.558594 64.679688 L 220.675781 131.292969 Z M 222.644531 0.734375 L 0.363281 0.734375 L 0.363281 378.578125 L 64.308594 415.476562 L 64.308594 295.46875 L 288.148438 166.183594 L 288.148438 121.5625 Z M 222.644531 0.734375 " clip-rule="nonzero"/></clipPath><clipPath id="7e7d76eaa9"><rect x="0" width="289" y="0" height="416"/></clipPath><clipPath id="27df9c4a7e"><path d="M 553 443.023438 L 841 443.023438 L 841 988 L 553 988 Z M 553 443.023438 " clip-rule="nonzero"/></clipPath><clipPath id="c3925e3dac"><path d="M 776.976562 599.984375 L 776.9375 600.023438 L 617.074219 692.292969 L 617.074219 580.738281 L 656.675781 507.679688 L 656.714844 507.679688 L 776.929688 507.640625 L 776.929688 507.679688 L 776.96875 507.71875 Z M 618.628906 443.734375 L 553.125 564.5625 L 553.125 987.675781 L 617.074219 950.777344 L 617.074219 766.125 L 840.882812 636.925781 L 840.882812 443.734375 Z M 618.628906 443.734375 " clip-rule="nonzero"/></clipPath><clipPath id="7bd741b8d4"><path d="M 0.0585938 0.554688 L 287.929688 0.554688 L 287.929688 544.867188 L 0.0585938 544.867188 Z M 0.0585938 0.554688 " clip-rule="nonzero"/></clipPath><clipPath id="8c08b9b7c0"><path d="M 223.976562 156.984375 L 223.9375 157.023438 L 64.074219 249.292969 L 64.074219 137.738281 L 103.675781 64.679688 L 103.714844 64.679688 L 223.929688 64.640625 L 223.929688 64.679688 L 223.96875 64.71875 Z M 65.628906 0.734375 L 0.125 121.5625 L 0.125 544.675781 L 64.074219 507.777344 L 64.074219 323.125 L 287.882812 193.925781 L 287.882812 0.734375 Z M 65.628906 0.734375 " clip-rule="nonzero"/></clipPath><clipPath id="44cb10cca6"><rect x="0" width="288" y="0" height="545"/></clipPath><clipPath id="e7487680b6"><path d="M 408.019531 254.578125 L 666.058594 254.578125 L 666.058594 399 L 408.019531 399 Z M 408.019531 254.578125 " clip-rule="nonzero"/></clipPath><clipPath id="050f3d8977"><path d="M 509.832031 276.917969 L 518.667969 287.492188 L 545.96875 254.84375 L 666.039062 398.457031 L 408.21875 398.457031 Z M 509.832031 276.917969 " clip-rule="nonzero"/></clipPath><clipPath id="4ef13a2957"><path d="M 0.167969 0.761719 L 258.046875 0.761719 L 258.046875 144.695312 L 0.167969 144.695312 Z M 0.167969 0.761719 " clip-rule="nonzero"/></clipPath><clipPath id="a2b0d7982e"><path d="M 101.832031 22.917969 L 110.667969 33.492188 L 137.96875 0.84375 L 258.039062 144.457031 L 0.21875 144.457031 Z M 101.832031 22.917969 " clip-rule="nonzero"/></clipPath><clipPath id="fe3b8bc79d"><rect x="0" width="259" y="0" height="145"/></clipPath></defs><g clip-path="url(#efe3112869)"><g clip-path="url(#2ad0e576ac)"><g transform="matrix(1, 0, 0, 1, 4, 27)"><g clip-path="url(#33b33d2cad)"><g clip-path="url(#c1ba26328b)"><g clip-path="url(#34ea84def6)"><rect x="-233.185" width="1500.12" fill="#282d35" height="1565.99996" y="-266.249994" fill-opacity="1"/></g></g></g></g></g></g><g clip-path="url(#b8ef6d155c)"><g clip-path="url(#df71b9de5c)"><g transform="matrix(1, 0, 0, 1, 304, 123)"><g clip-path="url(#8128a676ee)"><g clip-path="url(#401449337d)"><g clip-path="url(#af9d0289cf)"><rect x="-533.185" width="1500.12" fill="#fc9112" height="1565.99996" y="-362.249994" fill-opacity="1"/></g></g></g></g></g></g><g clip-path="url(#af2d17cf59)"><g clip-path="url(#1bcaa18457)"><g transform="matrix(1, 0, 0, 1, 443, 235)"><g clip-path="url(#f22a472c35)"><g clip-path="url(#bf684d5738)"><g clip-path="url(#b913d385b6)"><rect x="-672.185" width="1500.12" fill="#fc9112" height="1565.99996" y="-474.249994" fill-opacity="1"/></g></g></g></g></g></g><g clip-path="url(#96ce36ff15)"><g clip-path="url(#ec4fce2219)"><g transform="matrix(1, 0, 0, 1, 233, 443)"><g clip-path="url(#7e7d76eaa9)"><g clip-path="url(#2ba209305e)"><g clip-path="url(#2c237c8377)"><rect x="-462.185" width="1500.12" fill="#ffffff" height="1565.99996" y="-682.249994" fill-opacity="1"/></g></g></g></g></g></g><g clip-path="url(#27df9c4a7e)"><g clip-path="url(#c3925e3dac)"><g transform="matrix(1, 0, 0, 1, 553, 443)"><g clip-path="url(#44cb10cca6)"><g clip-path="url(#7bd741b8d4)"><g clip-path="url(#8c08b9b7c0)"><rect x="-782.185" width="1500.12" fill="#ffffff" height="1565.99996" y="-682.249994" fill-opacity="1"/></g></g></g></g></g></g><g clip-path="url(#e7487680b6)"><g clip-path="url(#050f3d8977)"><g transform="matrix(1, 0, 0, 1, 408, 254)"><g clip-path="url(#fe3b8bc79d)"><g clip-path="url(#4ef13a2957)"><g clip-path="url(#a2b0d7982e)"><rect x="-637.185" width="1500.12" fill="#282d35" height="1565.99996" y="-493.249994" fill-opacity="1"/></g></g></g></g></g></g></svg>