<svg xmlns="http://www.w3.org/2000/svg" xmlns:xlink="http://www.w3.org/1999/xlink" width="1389" zoomAndPan="magnify" viewBox="0 0 1041.75 299.999988" height="400" preserveAspectRatio="xMidYMid meet" version="1.0"><defs><g/></defs><g fill="#ffffff" fill-opacity="1"><g transform="translate(15.706994, 212.461313)"><g><path d="M 5.75 0 L 29.4375 -118.109375 L 68.53125 -118.109375 C 77.78125 -118.109375 84.289062 -115.707031 88.0625 -110.90625 C 91.84375 -106.113281 93.734375 -99.601562 93.734375 -91.375 C 93.734375 -85.613281 92.914062 -80.25 91.28125 -75.28125 C 89.644531 -70.320312 87.273438 -66.066406 84.171875 -62.515625 C 81.078125 -58.960938 77.328125 -56.171875 72.921875 -54.140625 C 68.523438 -52.109375 63.5625 -51.09375 58.03125 -51.09375 L 28.9375 -51.09375 L 18.78125 0 Z M 31.296875 -62.4375 L 60.0625 -62.4375 C 64.6875 -62.4375 68.578125 -63.789062 71.734375 -66.5 C 74.898438 -69.207031 76.988281 -73.15625 78 -78.34375 C 78.445312 -80.820312 78.835938 -82.90625 79.171875 -84.59375 C 79.515625 -86.289062 79.769531 -87.726562 79.9375 -88.90625 C 80.113281 -90.09375 80.226562 -91.109375 80.28125 -91.953125 C 80.34375 -92.804688 80.375 -93.738281 80.375 -94.75 C 80.375 -98.363281 79.414062 -101.269531 77.5 -103.46875 C 75.582031 -105.664062 72.195312 -106.765625 67.34375 -106.765625 L 40.09375 -106.765625 Z M 31.296875 -62.4375 "/></g></g></g><g fill="#ffffff" fill-opacity="1"><g transform="translate(108.930712, 212.461313)"><g><path d="M 35.53125 2.03125 C 25.71875 2.03125 18.414062 -0.757812 13.625 -6.34375 C 8.832031 -11.925781 6.4375 -19.226562 6.4375 -28.25 C 6.4375 -31.1875 6.660156 -34.570312 7.109375 -38.40625 C 7.554688 -42.238281 8.117188 -45.847656 8.796875 -49.234375 C 11.390625 -62.210938 16.125 -72.140625 23 -79.015625 C 29.882812 -85.898438 38.40625 -89.34375 48.5625 -89.34375 C 52.164062 -89.34375 55.546875 -88.863281 58.703125 -87.90625 C 61.867188 -86.945312 64.609375 -85.503906 66.921875 -83.578125 C 69.234375 -81.660156 71.066406 -79.265625 72.421875 -76.390625 C 73.773438 -73.515625 74.453125 -70.101562 74.453125 -66.15625 C 74.453125 -56.226562 69.910156 -49.066406 60.828125 -44.671875 C 51.742188 -40.273438 38.125 -37.90625 19.96875 -37.5625 C 19.40625 -35.414062 19.09375 -33.640625 19.03125 -32.234375 C 18.976562 -30.828125 18.953125 -29.554688 18.953125 -28.421875 C 18.953125 -21.660156 20.445312 -16.726562 23.4375 -13.625 C 26.425781 -10.519531 30.738281 -8.96875 36.375 -8.96875 C 41.90625 -8.96875 46.703125 -10.265625 50.765625 -12.859375 C 54.828125 -15.453125 58.207031 -18.894531 60.90625 -23.1875 L 68.859375 -16.078125 C 65.367188 -10.316406 60.71875 -5.859375 54.90625 -2.703125 C 49.09375 0.453125 42.632812 2.03125 35.53125 2.03125 Z M 47.375 -78.671875 C 40.945312 -78.671875 35.757812 -76.695312 31.8125 -72.75 C 27.863281 -68.800781 25.097656 -63.109375 23.515625 -55.671875 L 21.828125 -47.375 C 29.609375 -47.71875 36.066406 -48.28125 41.203125 -49.0625 C 46.335938 -49.851562 50.425781 -50.925781 53.46875 -52.28125 C 56.507812 -53.632812 58.648438 -55.382812 59.890625 -57.53125 C 61.140625 -59.675781 61.765625 -62.269531 61.765625 -65.3125 C 61.765625 -68.019531 61.367188 -70.21875 60.578125 -71.90625 C 59.785156 -73.601562 58.710938 -74.957031 57.359375 -75.96875 C 56.003906 -76.988281 54.453125 -77.691406 52.703125 -78.078125 C 50.953125 -78.472656 49.175781 -78.671875 47.375 -78.671875 Z M 52.96875 -98.984375 L 45.34375 -103.390625 L 61.9375 -131.8125 L 72.25 -125.546875 Z M 52.96875 -98.984375 "/></g></g></g><g fill="#ffffff" fill-opacity="1"><g transform="translate(188.788433, 212.461313)"><g><path d="M 30.796875 2.03125 C 24.023438 2.03125 18.269531 0.648438 13.53125 -2.109375 C 8.800781 -4.878906 4.851562 -8.800781 1.6875 -13.875 L 10.328125 -21.3125 C 13.140625 -17.03125 16.066406 -13.84375 19.109375 -11.75 C 22.160156 -9.664062 26.113281 -8.625 30.96875 -8.625 C 36.375 -8.625 40.769531 -9.976562 44.15625 -12.6875 C 47.539062 -15.394531 49.234375 -19.457031 49.234375 -24.875 C 49.234375 -27.695312 48.53125 -30.175781 47.125 -32.3125 C 45.71875 -34.457031 42.867188 -36.265625 38.578125 -37.734375 L 31.640625 -40.09375 C 29.160156 -40.882812 26.707031 -41.816406 24.28125 -42.890625 C 21.851562 -43.960938 19.707031 -45.34375 17.84375 -47.03125 C 15.988281 -48.726562 14.46875 -50.816406 13.28125 -53.296875 C 12.09375 -55.773438 11.5 -58.878906 11.5 -62.609375 C 11.5 -66.441406 12.144531 -69.960938 13.4375 -73.171875 C 14.738281 -76.390625 16.6875 -79.179688 19.28125 -81.546875 C 21.882812 -83.921875 25.101562 -85.785156 28.9375 -87.140625 C 32.769531 -88.492188 37.164062 -89.171875 42.125 -89.171875 C 47.882812 -89.171875 52.648438 -88.179688 56.421875 -86.203125 C 60.203125 -84.234375 63.785156 -80.992188 67.171875 -76.484375 L 58.546875 -69.03125 C 56.742188 -71.851562 54.539062 -74.140625 51.9375 -75.890625 C 49.34375 -77.640625 45.625 -78.515625 40.78125 -78.515625 C 35.03125 -78.515625 30.769531 -77.242188 28 -74.703125 C 25.238281 -72.160156 23.859375 -68.632812 23.859375 -64.125 C 23.859375 -61.082031 24.585938 -58.515625 26.046875 -56.421875 C 27.515625 -54.335938 30.171875 -52.675781 34.015625 -51.4375 L 41.109375 -49.0625 C 44.160156 -48.050781 46.894531 -46.953125 49.3125 -45.765625 C 51.738281 -44.585938 53.851562 -43.09375 55.65625 -41.28125 C 57.46875 -39.476562 58.851562 -37.335938 59.8125 -34.859375 C 60.769531 -32.378906 61.25 -29.332031 61.25 -25.71875 C 61.25 -21.207031 60.457031 -17.226562 58.875 -13.78125 C 57.300781 -10.34375 55.160156 -7.4375 52.453125 -5.0625 C 49.742188 -2.695312 46.523438 -0.925781 42.796875 0.25 C 39.078125 1.4375 35.078125 2.03125 30.796875 2.03125 Z M 30.796875 2.03125 "/></g></g></g><g fill="#ffffff" fill-opacity="1"><g transform="translate(263.401281, 212.461313)"><g/></g></g><g fill="#ffffff" fill-opacity="1"><g transform="translate(301.299914, 212.461313)"><g><path d="M 62.78125 0 C 60.070312 0 57.953125 -0.675781 56.421875 -2.03125 C 54.898438 -3.382812 54.140625 -5.359375 54.140625 -7.953125 C 54.140625 -8.859375 54.195312 -9.703125 54.3125 -10.484375 C 54.425781 -11.273438 54.597656 -12.125 54.828125 -13.03125 L 56 -18.78125 L 54.3125 -18.78125 C 49.125 -4.90625 40.773438 2.03125 29.265625 2.03125 C 21.710938 2.03125 16.019531 -0.617188 12.1875 -5.921875 C 8.351562 -11.222656 6.4375 -18.160156 6.4375 -26.734375 C 6.4375 -29.773438 6.660156 -33.269531 7.109375 -37.21875 C 7.554688 -41.164062 8.117188 -44.945312 8.796875 -48.5625 C 11.390625 -61.757812 15.734375 -71.851562 21.828125 -78.84375 C 27.921875 -85.84375 35.757812 -89.34375 45.34375 -89.34375 C 50.414062 -89.34375 54.84375 -87.988281 58.625 -85.28125 C 62.40625 -82.570312 64.578125 -78.507812 65.140625 -73.09375 L 66.828125 -73.09375 L 77.328125 -125.203125 L 89.84375 -125.203125 L 67 -10.828125 L 77.828125 -10.828125 L 75.640625 0 Z M 34.171875 -9.140625 C 37.441406 -9.140625 40.316406 -9.84375 42.796875 -11.25 C 45.285156 -12.65625 47.660156 -14.769531 49.921875 -17.59375 C 52.171875 -20.414062 54.195312 -23.546875 56 -26.984375 C 57.8125 -30.429688 59 -33.617188 59.5625 -36.546875 L 64.296875 -60.234375 C 64.640625 -62.148438 64.5 -64.179688 63.875 -66.328125 C 63.25 -68.472656 62.203125 -70.414062 60.734375 -72.15625 C 59.273438 -73.90625 57.390625 -75.375 55.078125 -76.5625 C 52.765625 -77.75 50.140625 -78.34375 47.203125 -78.34375 C 40.773438 -78.34375 35.613281 -76.335938 31.71875 -72.328125 C 27.832031 -68.328125 25.097656 -62.546875 23.515625 -54.984375 L 19.625 -35.359375 C 19.289062 -33.785156 19.09375 -32.265625 19.03125 -30.796875 C 18.976562 -29.328125 18.953125 -28.03125 18.953125 -26.90625 C 18.953125 -20.695312 20.304688 -16.179688 23.015625 -13.359375 C 25.722656 -10.546875 29.441406 -9.140625 34.171875 -9.140625 Z M 34.171875 -9.140625 "/></g></g></g><g fill="#ffffff" fill-opacity="1"><g transform="translate(392.831732, 212.461313)"><g><path d="M 35.03125 2.03125 C 25.550781 2.03125 18.414062 -0.757812 13.625 -6.34375 C 8.832031 -11.925781 6.4375 -19.226562 6.4375 -28.25 C 6.4375 -31.1875 6.660156 -34.570312 7.109375 -38.40625 C 7.554688 -42.238281 8.117188 -45.847656 8.796875 -49.234375 C 11.390625 -62.097656 16.015625 -72 22.671875 -78.9375 C 29.328125 -85.875 37.785156 -89.34375 48.046875 -89.34375 C 52.785156 -89.34375 56.929688 -88.609375 60.484375 -87.140625 C 64.035156 -85.671875 67.023438 -83.609375 69.453125 -80.953125 C 71.878906 -78.304688 73.6875 -75.117188 74.875 -71.390625 C 76.0625 -67.671875 76.65625 -63.554688 76.65625 -59.046875 C 76.65625 -56.117188 76.425781 -52.734375 75.96875 -48.890625 C 75.519531 -45.054688 74.957031 -41.453125 74.28125 -38.078125 C 71.6875 -25.210938 67.0625 -15.3125 60.40625 -8.375 C 53.75 -1.4375 45.289062 2.03125 35.03125 2.03125 Z M 36.046875 -8.96875 C 42.472656 -8.96875 47.628906 -10.882812 51.515625 -14.71875 C 55.410156 -18.550781 58.09375 -24.191406 59.5625 -31.640625 L 63.453125 -51.265625 C 63.679688 -52.617188 63.847656 -53.972656 63.953125 -55.328125 C 64.066406 -56.679688 64.125 -57.863281 64.125 -58.875 C 64.125 -65.644531 62.628906 -70.582031 59.640625 -73.6875 C 56.648438 -76.789062 52.445312 -78.34375 47.03125 -78.34375 C 40.601562 -78.34375 35.441406 -76.421875 31.546875 -72.578125 C 27.660156 -68.742188 24.984375 -63.109375 23.515625 -55.671875 L 19.625 -36.046875 C 19.40625 -34.691406 19.238281 -33.335938 19.125 -31.984375 C 19.007812 -30.628906 18.953125 -29.441406 18.953125 -28.421875 C 18.953125 -21.660156 20.445312 -16.726562 23.4375 -13.625 C 26.425781 -10.519531 30.628906 -8.96875 36.046875 -8.96875 Z M 36.046875 -8.96875 "/></g></g></g><g fill="#ffffff" fill-opacity="1"><g transform="translate(477.934336, 212.461313)"><g/></g></g><g fill="#fc9112" fill-opacity="1"><g transform="translate(515.836952, 212.461313)"><g><path d="M 5.75 0 L 29.4375 -118.109375 L 68.53125 -118.109375 C 77.78125 -118.109375 84.289062 -115.707031 88.0625 -110.90625 C 91.84375 -106.113281 93.734375 -99.601562 93.734375 -91.375 C 93.734375 -85.613281 92.914062 -80.25 91.28125 -75.28125 C 89.644531 -70.320312 87.273438 -66.066406 84.171875 -62.515625 C 81.078125 -58.960938 77.328125 -56.171875 72.921875 -54.140625 C 68.523438 -52.109375 63.5625 -51.09375 58.03125 -51.09375 L 28.9375 -51.09375 L 18.78125 0 Z M 31.296875 -62.4375 L 60.0625 -62.4375 C 64.6875 -62.4375 68.578125 -63.789062 71.734375 -66.5 C 74.898438 -69.207031 76.988281 -73.15625 78 -78.34375 C 78.445312 -80.820312 78.835938 -82.90625 79.171875 -84.59375 C 79.515625 -86.289062 79.769531 -87.726562 79.9375 -88.90625 C 80.113281 -90.09375 80.226562 -91.109375 80.28125 -91.953125 C 80.34375 -92.804688 80.375 -93.738281 80.375 -94.75 C 80.375 -98.363281 79.414062 -101.269531 77.5 -103.46875 C 75.582031 -105.664062 72.195312 -106.765625 67.34375 -106.765625 L 40.09375 -106.765625 Z M 31.296875 -62.4375 "/></g></g></g><g fill="#fc9112" fill-opacity="1"><g transform="translate(609.06067, 212.461313)"><g><path d="M 62.78125 0 C 60.070312 0 57.953125 -0.675781 56.421875 -2.03125 C 54.898438 -3.382812 54.140625 -5.359375 54.140625 -7.953125 C 54.140625 -8.859375 54.195312 -9.703125 54.3125 -10.484375 C 54.425781 -11.273438 54.597656 -12.125 54.828125 -13.03125 L 56 -18.78125 L 54.3125 -18.78125 C 49.125 -4.90625 40.773438 2.03125 29.265625 2.03125 C 21.710938 2.03125 16.019531 -0.617188 12.1875 -5.921875 C 8.351562 -11.222656 6.4375 -18.160156 6.4375 -26.734375 C 6.4375 -29.773438 6.660156 -33.269531 7.109375 -37.21875 C 7.554688 -41.164062 8.117188 -44.945312 8.796875 -48.5625 C 11.390625 -61.757812 15.734375 -71.851562 21.828125 -78.84375 C 27.921875 -85.84375 35.757812 -89.34375 45.34375 -89.34375 C 50.414062 -89.34375 54.84375 -87.988281 58.625 -85.28125 C 62.40625 -82.570312 64.578125 -78.507812 65.140625 -73.09375 L 66.828125 -73.09375 L 69.71875 -87.3125 L 82.234375 -87.3125 L 67 -10.828125 L 77.828125 -10.828125 L 75.640625 0 Z M 34.171875 -9.140625 C 37.441406 -9.140625 40.316406 -9.84375 42.796875 -11.25 C 45.285156 -12.65625 47.660156 -14.769531 49.921875 -17.59375 C 52.171875 -20.414062 54.195312 -23.546875 56 -26.984375 C 57.8125 -30.429688 59 -33.617188 59.5625 -36.546875 L 64.296875 -60.234375 C 64.640625 -62.148438 64.5 -64.179688 63.875 -66.328125 C 63.25 -68.472656 62.203125 -70.414062 60.734375 -72.15625 C 59.273438 -73.90625 57.390625 -75.375 55.078125 -76.5625 C 52.765625 -77.75 50.140625 -78.34375 47.203125 -78.34375 C 40.773438 -78.34375 35.613281 -76.335938 31.71875 -72.328125 C 27.832031 -68.328125 25.097656 -62.546875 23.515625 -54.984375 L 19.625 -35.359375 C 19.289062 -33.785156 19.09375 -32.265625 19.03125 -30.796875 C 18.976562 -29.328125 18.953125 -28.03125 18.953125 -26.90625 C 18.953125 -20.695312 20.304688 -16.179688 23.015625 -13.359375 C 25.722656 -10.546875 29.441406 -9.140625 34.171875 -9.140625 Z M 34.171875 -9.140625 "/></g></g></g><g fill="#fc9112" fill-opacity="1"><g transform="translate(699.577343, 212.461313)"><g><path d="M 4.90625 0 L 22.328125 -87.3125 L 34.859375 -87.3125 L 31.46875 -70.21875 L 33.15625 -70.21875 C 37.445312 -81.613281 45.007812 -87.3125 55.84375 -87.3125 L 61.765625 -87.3125 L 59.21875 -74.453125 L 51.78125 -74.453125 C 45.007812 -74.453125 39.675781 -72.503906 35.78125 -68.609375 C 31.894531 -64.722656 29.273438 -59.28125 27.921875 -52.28125 L 17.421875 0 Z M 4.90625 0 "/></g></g></g><g fill="#fc9112" fill-opacity="1"><g transform="translate(758.455537, 212.461313)"><g><path d="M 62.78125 0 C 60.070312 0 57.953125 -0.675781 56.421875 -2.03125 C 54.898438 -3.382812 54.140625 -5.359375 54.140625 -7.953125 C 54.140625 -8.859375 54.195312 -9.703125 54.3125 -10.484375 C 54.425781 -11.273438 54.597656 -12.125 54.828125 -13.03125 L 56 -18.78125 L 54.3125 -18.78125 C 49.125 -4.90625 40.773438 2.03125 29.265625 2.03125 C 21.710938 2.03125 16.019531 -0.617188 12.1875 -5.921875 C 8.351562 -11.222656 6.4375 -18.160156 6.4375 -26.734375 C 6.4375 -29.773438 6.660156 -33.269531 7.109375 -37.21875 C 7.554688 -41.164062 8.117188 -44.945312 8.796875 -48.5625 C 11.390625 -61.757812 15.734375 -71.851562 21.828125 -78.84375 C 27.921875 -85.84375 35.757812 -89.34375 45.34375 -89.34375 C 50.414062 -89.34375 54.84375 -87.988281 58.625 -85.28125 C 62.40625 -82.570312 64.578125 -78.507812 65.140625 -73.09375 L 66.828125 -73.09375 L 69.71875 -87.3125 L 82.234375 -87.3125 L 67 -10.828125 L 77.828125 -10.828125 L 75.640625 0 Z M 34.171875 -9.140625 C 37.441406 -9.140625 40.316406 -9.84375 42.796875 -11.25 C 45.285156 -12.65625 47.660156 -14.769531 49.921875 -17.59375 C 52.171875 -20.414062 54.195312 -23.546875 56 -26.984375 C 57.8125 -30.429688 59 -33.617188 59.5625 -36.546875 L 64.296875 -60.234375 C 64.640625 -62.148438 64.5 -64.179688 63.875 -66.328125 C 63.25 -68.472656 62.203125 -70.414062 60.734375 -72.15625 C 59.273438 -73.90625 57.390625 -75.375 55.078125 -76.5625 C 52.765625 -77.75 50.140625 -78.34375 47.203125 -78.34375 C 40.773438 -78.34375 35.613281 -76.335938 31.71875 -72.328125 C 27.832031 -68.328125 25.097656 -62.546875 23.515625 -54.984375 L 19.625 -35.359375 C 19.289062 -33.785156 19.09375 -32.265625 19.03125 -30.796875 C 18.976562 -29.328125 18.953125 -28.03125 18.953125 -26.90625 C 18.953125 -20.695312 20.304688 -16.179688 23.015625 -13.359375 C 25.722656 -10.546875 29.441406 -9.140625 34.171875 -9.140625 Z M 34.171875 -9.140625 "/></g></g></g><g fill="#fc9112" fill-opacity="1"><g transform="translate(848.972187, 212.461313)"><g><path d="M 4.90625 0 L 22.328125 -87.3125 L 34.859375 -87.3125 L 31.46875 -70.21875 L 33.15625 -70.21875 C 35.644531 -76.757812 39.003906 -81.582031 43.234375 -84.6875 C 47.460938 -87.789062 52.453125 -89.34375 58.203125 -89.34375 C 64.410156 -89.34375 69.117188 -87.367188 72.328125 -83.421875 C 75.546875 -79.472656 77.15625 -73.890625 77.15625 -66.671875 C 77.15625 -64.859375 77.015625 -62.9375 76.734375 -60.90625 C 76.453125 -58.882812 76.03125 -56.628906 75.46875 -54.140625 L 66.828125 -10.828125 L 77.671875 -10.828125 L 75.46875 0 L 62.265625 0 C 56.734375 0 53.96875 -2.648438 53.96875 -7.953125 C 53.96875 -8.859375 54.023438 -9.703125 54.140625 -10.484375 C 54.253906 -11.273438 54.425781 -12.125 54.65625 -13.03125 L 62.9375 -54.484375 C 63.84375 -58.765625 64.296875 -62.488281 64.296875 -65.65625 C 64.296875 -70.164062 63.25 -73.378906 61.15625 -75.296875 C 59.070312 -77.210938 56.226562 -78.171875 52.625 -78.171875 C 46.195312 -78.171875 41.0625 -75.859375 37.21875 -71.234375 C 34.851562 -68.296875 32.796875 -64.9375 31.046875 -61.15625 C 29.296875 -57.382812 28.140625 -53.921875 27.578125 -50.765625 L 17.421875 0 Z M 4.90625 0 "/></g></g></g><g fill="#fc9112" fill-opacity="1"><g transform="translate(937.289398, 212.461313)"><g><path d="M 62.78125 0 C 60.070312 0 57.953125 -0.675781 56.421875 -2.03125 C 54.898438 -3.382812 54.140625 -5.359375 54.140625 -7.953125 C 54.140625 -8.859375 54.195312 -9.703125 54.3125 -10.484375 C 54.425781 -11.273438 54.597656 -12.125 54.828125 -13.03125 L 56 -18.78125 L 54.3125 -18.78125 C 49.125 -4.90625 40.773438 2.03125 29.265625 2.03125 C 21.710938 2.03125 16.019531 -0.617188 12.1875 -5.921875 C 8.351562 -11.222656 6.4375 -18.160156 6.4375 -26.734375 C 6.4375 -29.773438 6.660156 -33.269531 7.109375 -37.21875 C 7.554688 -41.164062 8.117188 -44.945312 8.796875 -48.5625 C 11.390625 -61.757812 15.734375 -71.851562 21.828125 -78.84375 C 27.921875 -85.84375 35.757812 -89.34375 45.34375 -89.34375 C 50.414062 -89.34375 54.84375 -87.988281 58.625 -85.28125 C 62.40625 -82.570312 64.578125 -78.507812 65.140625 -73.09375 L 66.828125 -73.09375 L 69.71875 -87.3125 L 82.234375 -87.3125 L 67 -10.828125 L 77.828125 -10.828125 L 75.640625 0 Z M 34.171875 -9.140625 C 37.441406 -9.140625 40.316406 -9.84375 42.796875 -11.25 C 45.285156 -12.65625 47.660156 -14.769531 49.921875 -17.59375 C 52.171875 -20.414062 54.195312 -23.546875 56 -26.984375 C 57.8125 -30.429688 59 -33.617188 59.5625 -36.546875 L 64.296875 -60.234375 C 64.640625 -62.148438 64.5 -64.179688 63.875 -66.328125 C 63.25 -68.472656 62.203125 -70.414062 60.734375 -72.15625 C 59.273438 -73.90625 57.390625 -75.375 55.078125 -76.5625 C 52.765625 -77.75 50.140625 -78.34375 47.203125 -78.34375 C 40.773438 -78.34375 35.613281 -76.335938 31.71875 -72.328125 C 27.832031 -68.328125 25.097656 -62.546875 23.515625 -54.984375 L 19.625 -35.359375 C 19.289062 -33.785156 19.09375 -32.265625 19.03125 -30.796875 C 18.976562 -29.328125 18.953125 -28.03125 18.953125 -26.90625 C 18.953125 -20.695312 20.304688 -16.179688 23.015625 -13.359375 C 25.722656 -10.546875 29.441406 -9.140625 34.171875 -9.140625 Z M 52.125 -98.984375 L 44.5 -103.390625 L 61.09375 -131.8125 L 71.40625 -125.546875 Z M 52.125 -98.984375 "/></g></g></g></svg>