<svg xmlns="http://www.w3.org/2000/svg" xmlns:xlink="http://www.w3.org/1999/xlink" width="1389" zoomAndPan="magnify" viewBox="0 0 1041.75 599.999999" height="800" preserveAspectRatio="xMidYMid meet" version="1.0"><defs><g/><clipPath id="8002ac8547"><path d="M 89 0.0703125 L 986 0.0703125 L 986 599.925781 L 89 599.925781 Z M 89 0.0703125 " clip-rule="nonzero"/></clipPath><clipPath id="69b11dc3b4"><rect x="0" width="897" y="0" height="600"/></clipPath></defs><g clip-path="url(#8002ac8547)"><g transform="matrix(1, 0, 0, 1, 89, -0.000000000000108191)"><g clip-path="url(#69b11dc3b4)"><g fill="#ffffff" fill-opacity="1"><g transform="translate(88.920602, 291.992102)"><g><path d="M 10.046875 0 L 51.40625 -206.21875 L 119.65625 -206.21875 C 135.800781 -206.21875 147.171875 -202.03125 153.765625 -193.65625 C 160.367188 -185.289062 163.671875 -173.914062 163.671875 -159.53125 C 163.671875 -149.488281 162.242188 -140.132812 159.390625 -131.46875 C 156.535156 -122.800781 152.398438 -115.363281 146.984375 -109.15625 C 141.566406 -102.957031 135.015625 -98.082031 127.328125 -94.53125 C 119.648438 -90.988281 110.984375 -89.21875 101.328125 -89.21875 L 50.515625 -89.21875 L 32.796875 0 Z M 54.65625 -109.015625 L 104.875 -109.015625 C 112.957031 -109.015625 119.753906 -111.378906 125.265625 -116.109375 C 130.773438 -120.835938 134.421875 -127.726562 136.203125 -136.78125 C 136.984375 -141.113281 137.671875 -144.757812 138.265625 -147.71875 C 138.859375 -150.675781 139.300781 -153.1875 139.59375 -155.25 C 139.882812 -157.320312 140.078125 -159.09375 140.171875 -160.5625 C 140.273438 -162.039062 140.328125 -163.664062 140.328125 -165.4375 C 140.328125 -171.75 138.648438 -176.820312 135.296875 -180.65625 C 131.953125 -184.5 126.046875 -186.421875 117.578125 -186.421875 L 70.015625 -186.421875 Z M 54.65625 -109.015625 "/></g></g></g><g fill="#ffffff" fill-opacity="1"><g transform="translate(251.703835, 291.992102)"><g><path d="M 62.046875 3.546875 C 44.910156 3.546875 32.15625 -1.328125 23.78125 -11.078125 C 15.414062 -20.828125 11.234375 -33.582031 11.234375 -49.34375 C 11.234375 -54.457031 11.625 -60.363281 12.40625 -67.0625 C 13.195312 -73.757812 14.179688 -80.0625 15.359375 -85.96875 C 19.890625 -108.625 28.160156 -125.957031 40.171875 -137.96875 C 52.191406 -149.976562 67.066406 -155.984375 84.796875 -155.984375 C 91.097656 -155.984375 97.003906 -155.144531 102.515625 -153.46875 C 108.035156 -151.800781 112.8125 -149.289062 116.84375 -145.9375 C 120.882812 -142.59375 124.085938 -138.410156 126.453125 -133.390625 C 128.816406 -128.367188 130 -122.410156 130 -115.515625 C 130 -98.179688 122.066406 -85.671875 106.203125 -77.984375 C 90.347656 -70.304688 66.566406 -66.175781 34.859375 -65.59375 C 33.878906 -61.84375 33.335938 -58.738281 33.234375 -56.28125 C 33.140625 -53.820312 33.09375 -51.609375 33.09375 -49.640625 C 33.09375 -37.816406 35.703125 -29.195312 40.921875 -23.78125 C 46.140625 -18.363281 53.671875 -15.65625 63.515625 -15.65625 C 73.171875 -15.65625 81.539062 -17.921875 88.625 -22.453125 C 95.71875 -26.984375 101.628906 -32.988281 106.359375 -40.46875 L 120.25 -28.0625 C 114.132812 -18.019531 106.003906 -10.238281 95.859375 -4.71875 C 85.722656 0.789062 74.453125 3.546875 62.046875 3.546875 Z M 82.71875 -137.375 C 71.488281 -137.375 62.425781 -133.925781 55.53125 -127.03125 C 48.644531 -120.144531 43.820312 -110.203125 41.0625 -97.203125 L 38.109375 -82.71875 C 51.703125 -83.3125 62.976562 -84.296875 71.9375 -85.671875 C 80.894531 -87.054688 88.03125 -88.925781 93.34375 -91.28125 C 98.664062 -93.644531 102.410156 -96.695312 104.578125 -100.4375 C 106.742188 -104.1875 107.828125 -108.71875 107.828125 -114.03125 C 107.828125 -118.757812 107.140625 -122.601562 105.765625 -125.5625 C 104.390625 -128.519531 102.519531 -130.882812 100.15625 -132.65625 C 97.789062 -134.425781 95.082031 -135.65625 92.03125 -136.34375 C 88.976562 -137.03125 85.875 -137.375 82.71875 -137.375 Z M 92.46875 -172.828125 L 79.1875 -180.515625 L 108.140625 -230.140625 L 126.15625 -219.21875 Z M 92.46875 -172.828125 "/></g></g></g><g fill="#ffffff" fill-opacity="1"><g transform="translate(391.147954, 291.992102)"><g><path d="M 53.765625 3.546875 C 41.953125 3.546875 31.910156 1.132812 23.640625 -3.6875 C 15.367188 -8.519531 8.472656 -15.363281 2.953125 -24.21875 L 18.015625 -37.21875 C 22.941406 -29.738281 28.0625 -24.175781 33.375 -20.53125 C 38.695312 -16.882812 45.59375 -15.0625 54.0625 -15.0625 C 63.519531 -15.0625 71.203125 -17.425781 77.109375 -22.15625 C 83.015625 -26.882812 85.96875 -33.972656 85.96875 -43.421875 C 85.96875 -48.347656 84.738281 -52.679688 82.28125 -56.421875 C 79.820312 -60.171875 74.847656 -63.320312 67.359375 -65.875 L 55.25 -70.015625 C 50.914062 -71.398438 46.628906 -73.023438 42.390625 -74.890625 C 38.160156 -76.765625 34.421875 -79.175781 31.171875 -82.125 C 27.921875 -85.082031 25.257812 -88.726562 23.1875 -93.0625 C 21.125 -97.394531 20.09375 -102.8125 20.09375 -109.3125 C 20.09375 -116.007812 21.222656 -122.164062 23.484375 -127.78125 C 25.753906 -133.394531 29.148438 -138.269531 33.671875 -142.40625 C 38.203125 -146.539062 43.816406 -149.789062 50.515625 -152.15625 C 57.210938 -154.519531 64.894531 -155.703125 73.5625 -155.703125 C 83.601562 -155.703125 91.921875 -153.976562 98.515625 -150.53125 C 105.117188 -147.082031 111.375 -141.414062 117.28125 -133.53125 L 102.21875 -120.53125 C 99.070312 -125.457031 95.234375 -129.445312 90.703125 -132.5 C 86.171875 -135.550781 79.671875 -137.078125 71.203125 -137.078125 C 61.160156 -137.078125 53.722656 -134.859375 48.890625 -130.421875 C 44.066406 -125.992188 41.65625 -119.84375 41.65625 -111.96875 C 41.65625 -106.65625 42.9375 -102.175781 45.5 -98.53125 C 48.0625 -94.882812 52.691406 -91.976562 59.390625 -89.8125 L 71.796875 -85.671875 C 77.109375 -83.898438 81.878906 -81.976562 86.109375 -79.90625 C 90.347656 -77.84375 94.039062 -75.234375 97.1875 -72.078125 C 100.34375 -68.929688 102.757812 -65.191406 104.4375 -60.859375 C 106.113281 -56.523438 106.953125 -51.207031 106.953125 -44.90625 C 106.953125 -37.03125 105.570312 -30.085938 102.8125 -24.078125 C 100.050781 -18.066406 96.304688 -12.992188 91.578125 -8.859375 C 86.859375 -4.722656 81.25 -1.625 74.75 0.4375 C 68.25 2.507812 61.253906 3.546875 53.765625 3.546875 Z M 53.765625 3.546875 "/></g></g></g><g fill="#ffffff" fill-opacity="1"><g transform="translate(521.433711, 291.992102)"><g/></g></g><g fill="#ffffff" fill-opacity="1"><g transform="translate(587.610652, 291.992102)"><g><path d="M 109.609375 0 C 104.878906 0 101.1875 -1.179688 98.53125 -3.546875 C 95.875 -5.910156 94.546875 -9.359375 94.546875 -13.890625 C 94.546875 -15.460938 94.640625 -16.9375 94.828125 -18.3125 C 95.023438 -19.695312 95.320312 -21.175781 95.71875 -22.75 L 97.796875 -32.796875 L 94.828125 -32.796875 C 85.773438 -8.566406 71.203125 3.546875 51.109375 3.546875 C 37.910156 3.546875 27.960938 -1.078125 21.265625 -10.328125 C 14.578125 -19.585938 11.234375 -31.703125 11.234375 -46.671875 C 11.234375 -51.992188 11.625 -58.101562 12.40625 -65 C 13.195312 -71.894531 14.179688 -78.492188 15.359375 -84.796875 C 19.890625 -107.835938 27.472656 -125.460938 38.109375 -137.671875 C 48.742188 -149.878906 62.429688 -155.984375 79.171875 -155.984375 C 88.035156 -155.984375 95.765625 -153.617188 102.359375 -148.890625 C 108.960938 -144.171875 112.757812 -137.082031 113.75 -127.625 L 116.703125 -127.625 L 135.015625 -218.625 L 156.875 -218.625 L 117 -18.90625 L 135.90625 -18.90625 L 132.0625 0 Z M 59.671875 -15.953125 C 65.390625 -15.953125 70.414062 -17.179688 74.75 -19.640625 C 79.082031 -22.109375 83.21875 -25.800781 87.15625 -30.71875 C 91.09375 -35.644531 94.632812 -41.113281 97.78125 -47.125 C 100.9375 -53.132812 103.007812 -58.695312 104 -63.8125 L 112.265625 -105.171875 C 112.859375 -108.523438 112.613281 -112.070312 111.53125 -115.8125 C 110.445312 -119.550781 108.625 -122.945312 106.0625 -126 C 103.5 -129.050781 100.195312 -131.609375 96.15625 -133.671875 C 92.125 -135.742188 87.546875 -136.78125 82.421875 -136.78125 C 71.203125 -136.78125 62.191406 -133.285156 55.390625 -126.296875 C 48.597656 -119.304688 43.820312 -109.210938 41.0625 -96.015625 L 34.265625 -61.75 C 33.679688 -58.988281 33.335938 -56.328125 33.234375 -53.765625 C 33.140625 -51.203125 33.09375 -48.9375 33.09375 -46.96875 C 33.09375 -36.132812 35.453125 -28.253906 40.171875 -23.328125 C 44.898438 -18.410156 51.398438 -15.953125 59.671875 -15.953125 Z M 59.671875 -15.953125 "/></g></g></g><g fill="#ffffff" fill-opacity="1"><g transform="translate(747.439621, 291.992102)"><g><path d="M 61.15625 3.546875 C 44.613281 3.546875 32.15625 -1.328125 23.78125 -11.078125 C 15.414062 -20.828125 11.234375 -33.582031 11.234375 -49.34375 C 11.234375 -54.457031 11.625 -60.363281 12.40625 -67.0625 C 13.195312 -73.757812 14.179688 -80.0625 15.359375 -85.96875 C 19.890625 -108.425781 27.960938 -125.707031 39.578125 -137.8125 C 51.203125 -149.925781 65.976562 -155.984375 83.90625 -155.984375 C 92.175781 -155.984375 99.410156 -154.703125 105.609375 -152.140625 C 111.816406 -149.585938 117.035156 -145.992188 121.265625 -141.359375 C 125.503906 -136.734375 128.65625 -131.171875 130.71875 -124.671875 C 132.789062 -118.171875 133.828125 -110.984375 133.828125 -103.109375 C 133.828125 -97.984375 133.429688 -92.070312 132.640625 -85.375 C 131.859375 -78.6875 130.878906 -72.382812 129.703125 -66.46875 C 125.171875 -44.019531 117.09375 -26.738281 105.46875 -14.625 C 93.851562 -2.507812 79.082031 3.546875 61.15625 3.546875 Z M 62.921875 -15.65625 C 74.148438 -15.65625 83.160156 -19.003906 89.953125 -25.703125 C 96.753906 -32.398438 101.4375 -42.25 104 -55.25 L 110.796875 -89.515625 C 111.179688 -91.878906 111.472656 -94.242188 111.671875 -96.609375 C 111.867188 -98.972656 111.96875 -101.039062 111.96875 -102.8125 C 111.96875 -114.625 109.359375 -123.238281 104.140625 -128.65625 C 98.921875 -134.070312 91.582031 -136.78125 82.125 -136.78125 C 70.90625 -136.78125 61.894531 -133.429688 55.09375 -126.734375 C 48.300781 -120.046875 43.625 -110.203125 41.0625 -97.203125 L 34.265625 -62.921875 C 33.878906 -60.566406 33.585938 -58.207031 33.390625 -55.84375 C 33.191406 -53.476562 33.09375 -51.410156 33.09375 -49.640625 C 33.09375 -37.816406 35.703125 -29.195312 40.921875 -23.78125 C 46.140625 -18.363281 53.472656 -15.65625 62.921875 -15.65625 Z M 62.921875 -15.65625 "/></g></g></g><g fill="#fc9112" fill-opacity="1"><g transform="translate(2.074162, 526.410018)"><g><path d="M 10.046875 0 L 51.40625 -206.21875 L 119.65625 -206.21875 C 135.800781 -206.21875 147.171875 -202.03125 153.765625 -193.65625 C 160.367188 -185.289062 163.671875 -173.914062 163.671875 -159.53125 C 163.671875 -149.488281 162.242188 -140.132812 159.390625 -131.46875 C 156.535156 -122.800781 152.398438 -115.363281 146.984375 -109.15625 C 141.566406 -102.957031 135.015625 -98.082031 127.328125 -94.53125 C 119.648438 -90.988281 110.984375 -89.21875 101.328125 -89.21875 L 50.515625 -89.21875 L 32.796875 0 Z M 54.65625 -109.015625 L 104.875 -109.015625 C 112.957031 -109.015625 119.753906 -111.378906 125.265625 -116.109375 C 130.773438 -120.835938 134.421875 -127.726562 136.203125 -136.78125 C 136.984375 -141.113281 137.671875 -144.757812 138.265625 -147.71875 C 138.859375 -150.675781 139.300781 -153.1875 139.59375 -155.25 C 139.882812 -157.320312 140.078125 -159.09375 140.171875 -160.5625 C 140.273438 -162.039062 140.328125 -163.664062 140.328125 -165.4375 C 140.328125 -171.75 138.648438 -176.820312 135.296875 -180.65625 C 131.953125 -184.5 126.046875 -186.421875 117.578125 -186.421875 L 70.015625 -186.421875 Z M 54.65625 -109.015625 "/></g></g></g><g fill="#fc9112" fill-opacity="1"><g transform="translate(164.857395, 526.410018)"><g><path d="M 109.609375 0 C 104.878906 0 101.1875 -1.179688 98.53125 -3.546875 C 95.875 -5.910156 94.546875 -9.359375 94.546875 -13.890625 C 94.546875 -15.460938 94.640625 -16.9375 94.828125 -18.3125 C 95.023438 -19.695312 95.320312 -21.175781 95.71875 -22.75 L 97.796875 -32.796875 L 94.828125 -32.796875 C 85.773438 -8.566406 71.203125 3.546875 51.109375 3.546875 C 37.910156 3.546875 27.960938 -1.078125 21.265625 -10.328125 C 14.578125 -19.585938 11.234375 -31.703125 11.234375 -46.671875 C 11.234375 -51.992188 11.625 -58.101562 12.40625 -65 C 13.195312 -71.894531 14.179688 -78.492188 15.359375 -84.796875 C 19.890625 -107.835938 27.472656 -125.460938 38.109375 -137.671875 C 48.742188 -149.878906 62.429688 -155.984375 79.171875 -155.984375 C 88.035156 -155.984375 95.765625 -153.617188 102.359375 -148.890625 C 108.960938 -144.171875 112.757812 -137.082031 113.75 -127.625 L 116.703125 -127.625 L 121.71875 -152.453125 L 143.578125 -152.453125 L 117 -18.90625 L 135.90625 -18.90625 L 132.0625 0 Z M 59.671875 -15.953125 C 65.390625 -15.953125 70.414062 -17.179688 74.75 -19.640625 C 79.082031 -22.109375 83.21875 -25.800781 87.15625 -30.71875 C 91.09375 -35.644531 94.632812 -41.113281 97.78125 -47.125 C 100.9375 -53.132812 103.007812 -58.695312 104 -63.8125 L 112.265625 -105.171875 C 112.859375 -108.523438 112.613281 -112.070312 111.53125 -115.8125 C 110.445312 -119.550781 108.625 -122.945312 106.0625 -126 C 103.5 -129.050781 100.195312 -131.609375 96.15625 -133.671875 C 92.125 -135.742188 87.546875 -136.78125 82.421875 -136.78125 C 71.203125 -136.78125 62.191406 -133.285156 55.390625 -126.296875 C 48.597656 -119.304688 43.820312 -109.210938 41.0625 -96.015625 L 34.265625 -61.75 C 33.679688 -58.988281 33.335938 -56.328125 33.234375 -53.765625 C 33.140625 -51.203125 33.09375 -48.9375 33.09375 -46.96875 C 33.09375 -36.132812 35.453125 -28.253906 40.171875 -23.328125 C 44.898438 -18.410156 51.398438 -15.953125 59.671875 -15.953125 Z M 59.671875 -15.953125 "/></g></g></g><g fill="#fc9112" fill-opacity="1"><g transform="translate(322.913734, 526.410018)"><g><path d="M 8.5625 0 L 39 -152.453125 L 60.859375 -152.453125 L 54.953125 -122.609375 L 57.90625 -122.609375 C 65.382812 -142.503906 78.582031 -152.453125 97.5 -152.453125 L 107.828125 -152.453125 L 103.40625 -130 L 90.40625 -130 C 78.582031 -130 69.273438 -126.597656 62.484375 -119.796875 C 55.691406 -113.003906 51.113281 -103.503906 48.75 -91.296875 L 30.4375 0 Z M 8.5625 0 "/></g></g></g><g fill="#fc9112" fill-opacity="1"><g transform="translate(425.724287, 526.410018)"><g><path d="M 109.609375 0 C 104.878906 0 101.1875 -1.179688 98.53125 -3.546875 C 95.875 -5.910156 94.546875 -9.359375 94.546875 -13.890625 C 94.546875 -15.460938 94.640625 -16.9375 94.828125 -18.3125 C 95.023438 -19.695312 95.320312 -21.175781 95.71875 -22.75 L 97.796875 -32.796875 L 94.828125 -32.796875 C 85.773438 -8.566406 71.203125 3.546875 51.109375 3.546875 C 37.910156 3.546875 27.960938 -1.078125 21.265625 -10.328125 C 14.578125 -19.585938 11.234375 -31.703125 11.234375 -46.671875 C 11.234375 -51.992188 11.625 -58.101562 12.40625 -65 C 13.195312 -71.894531 14.179688 -78.492188 15.359375 -84.796875 C 19.890625 -107.835938 27.472656 -125.460938 38.109375 -137.671875 C 48.742188 -149.878906 62.429688 -155.984375 79.171875 -155.984375 C 88.035156 -155.984375 95.765625 -153.617188 102.359375 -148.890625 C 108.960938 -144.171875 112.757812 -137.082031 113.75 -127.625 L 116.703125 -127.625 L 121.71875 -152.453125 L 143.578125 -152.453125 L 117 -18.90625 L 135.90625 -18.90625 L 132.0625 0 Z M 59.671875 -15.953125 C 65.390625 -15.953125 70.414062 -17.179688 74.75 -19.640625 C 79.082031 -22.109375 83.21875 -25.800781 87.15625 -30.71875 C 91.09375 -35.644531 94.632812 -41.113281 97.78125 -47.125 C 100.9375 -53.132812 103.007812 -58.695312 104 -63.8125 L 112.265625 -105.171875 C 112.859375 -108.523438 112.613281 -112.070312 111.53125 -115.8125 C 110.445312 -119.550781 108.625 -122.945312 106.0625 -126 C 103.5 -129.050781 100.195312 -131.609375 96.15625 -133.671875 C 92.125 -135.742188 87.546875 -136.78125 82.421875 -136.78125 C 71.203125 -136.78125 62.191406 -133.285156 55.390625 -126.296875 C 48.597656 -119.304688 43.820312 -109.210938 41.0625 -96.015625 L 34.265625 -61.75 C 33.679688 -58.988281 33.335938 -56.328125 33.234375 -53.765625 C 33.140625 -51.203125 33.09375 -48.9375 33.09375 -46.96875 C 33.09375 -36.132812 35.453125 -28.253906 40.171875 -23.328125 C 44.898438 -18.410156 51.398438 -15.953125 59.671875 -15.953125 Z M 59.671875 -15.953125 "/></g></g></g><g fill="#fc9112" fill-opacity="1"><g transform="translate(583.780603, 526.410018)"><g><path d="M 8.5625 0 L 39 -152.453125 L 60.859375 -152.453125 L 54.953125 -122.609375 L 57.90625 -122.609375 C 62.238281 -134.023438 68.097656 -142.441406 75.484375 -147.859375 C 82.867188 -153.273438 91.582031 -155.984375 101.625 -155.984375 C 112.457031 -155.984375 120.679688 -152.535156 126.296875 -145.640625 C 131.910156 -138.753906 134.71875 -129.007812 134.71875 -116.40625 C 134.71875 -113.25 134.472656 -109.898438 133.984375 -106.359375 C 133.492188 -102.816406 132.753906 -98.878906 131.765625 -94.546875 L 116.703125 -18.90625 L 135.609375 -18.90625 L 131.765625 0 L 108.71875 0 C 99.070312 0 94.25 -4.628906 94.25 -13.890625 C 94.25 -15.460938 94.34375 -16.9375 94.53125 -18.3125 C 94.726562 -19.695312 95.023438 -21.175781 95.421875 -22.75 L 109.90625 -95.125 C 111.476562 -102.613281 112.265625 -109.113281 112.265625 -114.625 C 112.265625 -122.507812 110.441406 -128.125 106.796875 -131.46875 C 103.148438 -134.8125 98.175781 -136.484375 91.875 -136.484375 C 80.65625 -136.484375 71.695312 -132.445312 65 -124.375 C 60.863281 -119.257812 57.269531 -113.398438 54.21875 -106.796875 C 51.164062 -100.203125 49.144531 -94.144531 48.15625 -88.625 L 30.4375 0 Z M 8.5625 0 "/></g></g></g><g fill="#fc9112" fill-opacity="1"><g transform="translate(737.996328, 526.410018)"><g><path d="M 109.609375 0 C 104.878906 0 101.1875 -1.179688 98.53125 -3.546875 C 95.875 -5.910156 94.546875 -9.359375 94.546875 -13.890625 C 94.546875 -15.460938 94.640625 -16.9375 94.828125 -18.3125 C 95.023438 -19.695312 95.320312 -21.175781 95.71875 -22.75 L 97.796875 -32.796875 L 94.828125 -32.796875 C 85.773438 -8.566406 71.203125 3.546875 51.109375 3.546875 C 37.910156 3.546875 27.960938 -1.078125 21.265625 -10.328125 C 14.578125 -19.585938 11.234375 -31.703125 11.234375 -46.671875 C 11.234375 -51.992188 11.625 -58.101562 12.40625 -65 C 13.195312 -71.894531 14.179688 -78.492188 15.359375 -84.796875 C 19.890625 -107.835938 27.472656 -125.460938 38.109375 -137.671875 C 48.742188 -149.878906 62.429688 -155.984375 79.171875 -155.984375 C 88.035156 -155.984375 95.765625 -153.617188 102.359375 -148.890625 C 108.960938 -144.171875 112.757812 -137.082031 113.75 -127.625 L 116.703125 -127.625 L 121.71875 -152.453125 L 143.578125 -152.453125 L 117 -18.90625 L 135.90625 -18.90625 L 132.0625 0 Z M 59.671875 -15.953125 C 65.390625 -15.953125 70.414062 -17.179688 74.75 -19.640625 C 79.082031 -22.109375 83.21875 -25.800781 87.15625 -30.71875 C 91.09375 -35.644531 94.632812 -41.113281 97.78125 -47.125 C 100.9375 -53.132812 103.007812 -58.695312 104 -63.8125 L 112.265625 -105.171875 C 112.859375 -108.523438 112.613281 -112.070312 111.53125 -115.8125 C 110.445312 -119.550781 108.625 -122.945312 106.0625 -126 C 103.5 -129.050781 100.195312 -131.609375 96.15625 -133.671875 C 92.125 -135.742188 87.546875 -136.78125 82.421875 -136.78125 C 71.203125 -136.78125 62.191406 -133.285156 55.390625 -126.296875 C 48.597656 -119.304688 43.820312 -109.210938 41.0625 -96.015625 L 34.265625 -61.75 C 33.679688 -58.988281 33.335938 -56.328125 33.234375 -53.765625 C 33.140625 -51.203125 33.09375 -48.9375 33.09375 -46.96875 C 33.09375 -36.132812 35.453125 -28.253906 40.171875 -23.328125 C 44.898438 -18.410156 51.398438 -15.953125 59.671875 -15.953125 Z M 90.984375 -172.828125 L 77.703125 -180.515625 L 106.65625 -230.140625 L 124.671875 -219.21875 Z M 90.984375 -172.828125 "/></g></g></g></g></g></g></svg>